<svg width="0" height="0">
  <symbol xmlns="http://www.w3.org/2000/svg" viewBox="0 0 32 32" id="facebook-f">
    <path fill="#b4ac9e" d="M13,30V18H8v-5h5V8.827C13,4.083,15.311,2,19.253,2C21.144,2,22.526,2.141,23,2.205V7h-2.74C18.583,7,18,7.884,18,9.671 V13h5l-1,5h-4v12H13z"></path>
  </symbol>
  <symbol xmlns="http://www.w3.org/2000/svg" viewBox="0 0 24 24" id="pinterest">
    <path fill="#b4ac9e" d="M12,2C6.477,2,2,6.477,2,12c0,4.237,2.636,7.855,6.356,9.312c-0.087-0.791-0.167-2.005,0.035-2.868c0.182-0.78,1.172-4.971,1.172-4.971s-0.299-0.599-0.299-1.484c0-1.391,0.806-2.428,1.809-2.428c0.853,0,1.265,0.641,1.265,1.408c0,0.858-0.546,2.141-0.828,3.329c-0.236,0.996,0.499,1.807,1.481,1.807c1.777,0,3.143-1.874,3.143-4.579c0-2.394-1.72-4.068-4.177-4.068c-2.845,0-4.515,2.134-4.515,4.34c0,0.859,0.331,1.781,0.744,2.282c0.082,0.099,0.093,0.186,0.069,0.287c-0.076,0.316-0.244,0.995-0.277,1.134c-0.043,0.183-0.145,0.222-0.334,0.133c-1.249-0.582-2.03-2.408-2.03-3.874c0-3.154,2.292-6.052,6.608-6.052c3.469,0,6.165,2.472,6.165,5.776c0,3.447-2.173,6.22-5.189,6.22c-1.013,0-1.966-0.527-2.292-1.148c0,0-0.502,1.909-0.623,2.378c-0.226,0.868-0.835,1.958-1.243,2.622C9.975,21.843,10.969,22,12,22c5.522,0,10-4.478,10-10S17.523,2,12,2z"></path>
  </symbol>
  <symbol xmlns="http://www.w3.org/2000/svg" viewBox="0 0 32 32" id="tumblr">
    <path fill="#b4ac9e" stroke="#b4ac9e" stroke-miterlimit="10" stroke-width="2" d="M22.176,24.376c0,0.073-0.03,0.142-0.085,0.191C22.023,24.626,20.418,26,16.731,26c-4.42,0-4.548-4.931-4.548-5.493v-6.213h-2.106c-0.14,0-0.253-0.113-0.253-0.253v-2.217c0-0.104,0.064-0.199,0.161-0.237c0.04-0.015,3.992-1.603,3.992-5.334C13.977,6.113,14.09,6,14.23,6h2.501c0.14,0,0.253,0.113,0.253,0.253v4.703h4.089c0.14,0,0.254,0.113,0.254,0.253v3.02c0,0.14-0.114,0.253-0.254,0.253h-4.089v5.93c0,0.077,0.031,1.919,1.918,1.919c1.562,0,2.874-0.804,2.888-0.812c0.076-0.05,0.175-0.052,0.256-0.007c0.08,0.045,0.129,0.129,0.129,0.222v2.642H22.176z"></path>
  </symbol>
  <symbol xmlns="http://www.w3.org/2000/svg" viewBox="0 0 24 24" id="twitter">
    <path fill="#b4ac9e" d="M22,3.999c-0.78,0.463-2.345,1.094-3.265,1.276c-0.027,0.007-0.049,0.016-0.075,0.023c-0.813-0.802-1.927-1.299-3.16-1.299c-2.485,0-4.5,2.015-4.5,4.5c0,0.131-0.011,0.372,0,0.5c-3.353,0-5.905-1.756-7.735-4c-0.199,0.5-0.286,1.29-0.286,2.032c0,1.401,1.095,2.777,2.8,3.63c-0.314,0.081-0.66,0.139-1.02,0.139c-0.581,0-1.196-0.153-1.759-0.617c0,0.017,0,0.033,0,0.051c0,1.958,2.078,3.291,3.926,3.662c-0.375,0.221-1.131,0.243-1.5,0.243c-0.26,0-1.18-0.119-1.426-0.165c0.514,1.605,2.368,2.507,4.135,2.539c-1.382,1.084-2.341,1.486-5.171,1.486H2C3.788,19.145,6.065,20,8.347,20C15.777,20,20,14.337,20,8.999c0-0.086-0.002-0.266-0.005-0.447C19.995,8.534,20,8.517,20,8.499c0-0.027-0.008-0.053-0.008-0.08c-0.003-0.136-0.006-0.263-0.009-0.329c0.79-0.57,1.475-1.281,2.017-2.091c-0.725,0.322-1.503,0.538-2.32,0.636C20.514,6.135,21.699,4.943,22,3.999z"></path>
  </symbol>
</svg>