<svg fill="#b4ac9e" xmlns="http://www.w3.org/2000/svg"  viewBox="0 0 32 32" width="32px" height="32px"><path fill="none" stroke="#b4ac9e" stroke-miterlimit="10" stroke-width="2" d="M22.176,24.376c0,0.073-0.03,0.142-0.085,0.191C22.023,24.626,20.418,26,16.731,26c-4.42,0-4.548-4.931-4.548-5.493v-6.213h-2.106c-0.14,0-0.253-0.113-0.253-0.253v-2.217c0-0.104,0.064-0.199,0.161-0.237c0.04-0.015,3.992-1.603,3.992-5.334C13.977,6.113,14.09,6,14.23,6h2.501c0.14,0,0.253,0.113,0.253,0.253v4.703h4.089c0.14,0,0.254,0.113,0.254,0.253v3.02c0,0.14-0.114,0.253-0.254,0.253h-4.089v5.93c0,0.077,0.031,1.919,1.918,1.919c1.562,0,2.874-0.804,2.888-0.812c0.076-0.05,0.175-0.052,0.256-0.007c0.08,0.045,0.129,0.129,0.129,0.222v2.642H22.176z"/></svg>